<svg width="34" height="23" viewBox="0 0 34 23" fill="none" xmlns="http://www.w3.org/2000/svg">
<path d="M2 10C1.17157 10 0.5 10.6716 0.5 11.5C0.5 12.3284 1.17157 13 2 13V10ZM33.0607 12.5607C33.6464 11.9749 33.6464 11.0251 33.0607 10.4393L23.5147 0.893398C22.9289 0.307611 21.9792 0.307611 21.3934 0.893398C20.8076 1.47919 20.8076 2.42893 21.3934 3.01472L29.8787 11.5L21.3934 19.9853C20.8076 20.5711 20.8076 21.5208 21.3934 22.1066C21.9792 22.6924 22.9289 22.6924 23.5147 22.1066L33.0607 12.5607ZM2 13H32V10H2V13Z" fill="white"/>
</svg>
