<svg width="14" height="14" viewBox="0 0 14 14" fill="none" xmlns="http://www.w3.org/2000/svg">
<path d="M3.50571 8.08253C3.5072 8.11216 3.50264 8.14179 3.49231 8.16961C3.48198 8.19742 3.46611 8.22284 3.44564 8.24433C3.42518 8.26582 3.40056 8.28291 3.37328 8.29458C3.346 8.30626 3.31663 8.31225 3.28696 8.31222H0.874152C0.775405 8.31237 0.679512 8.27911 0.602067 8.21785C0.524621 8.15658 0.470177 8.07092 0.447589 7.9748C0.433524 7.909 0.434172 7.84091 0.449488 7.77539C0.464803 7.70988 0.494407 7.64855 0.536183 7.59581C0.922172 7.08392 1.43431 6.68088 2.02259 6.42605C1.76431 6.19056 1.56623 5.89662 1.44491 5.56884C1.3236 5.24106 1.28259 4.88898 1.32533 4.54209C1.36807 4.1952 1.4933 3.8636 1.69055 3.57507C1.88779 3.28653 2.1513 3.04946 2.45901 2.88371C2.76672 2.71795 3.10966 2.62835 3.45912 2.62239C3.80858 2.61643 4.15439 2.69429 4.46756 2.84946C4.78074 3.00463 5.05218 3.23258 5.25915 3.51422C5.46612 3.79587 5.60258 4.123 5.65712 4.46823C5.66416 4.51466 5.65585 4.56211 5.63344 4.60338C5.61103 4.64464 5.57575 4.67746 5.53298 4.69683C4.92616 4.97736 4.41225 5.42562 4.05188 5.9887C3.69151 6.55178 3.49973 7.20619 3.49915 7.87472C3.49915 7.94472 3.49915 8.01362 3.50571 8.08253ZM13.4588 7.59526C13.0737 7.08397 12.5628 6.68115 11.9757 6.42605C12.234 6.19056 12.4321 5.89662 12.5534 5.56884C12.6747 5.24106 12.7157 4.88898 12.673 4.54209C12.6302 4.1952 12.505 3.8636 12.3078 3.57507C12.1105 3.28653 11.847 3.04946 11.5393 2.88371C11.2316 2.71795 10.8886 2.62835 10.5392 2.62239C10.1897 2.61643 9.84392 2.69429 9.53074 2.84946C9.21756 3.00463 8.94612 3.23258 8.73915 3.51422C8.53219 3.79587 8.39572 4.123 8.34118 4.46823C8.33414 4.51466 8.34246 4.56211 8.36487 4.60338C8.38727 4.64464 8.42255 4.67746 8.46532 4.69683C9.07214 4.97736 9.58605 5.42562 9.94642 5.9887C10.3068 6.55178 10.4986 7.20619 10.4992 7.87472C10.4992 7.94472 10.4992 8.01362 10.4926 8.08253C10.4911 8.11216 10.4957 8.14179 10.506 8.16961C10.5163 8.19742 10.5322 8.22284 10.5527 8.24433C10.5731 8.26582 10.5977 8.28291 10.625 8.29458C10.6523 8.30626 10.6817 8.31225 10.7113 8.31222H13.1242C13.2229 8.31237 13.3188 8.27911 13.3962 8.21785C13.4737 8.15658 13.5281 8.07092 13.5507 7.9748C13.5649 7.90888 13.5642 7.84064 13.5488 7.77501C13.5334 7.70938 13.5036 7.64799 13.4616 7.59526H13.4588ZM8.59165 9.95667C9.02726 9.62306 9.34739 9.16133 9.50703 8.63638C9.66667 8.11144 9.65781 7.54966 9.48168 7.03001C9.30555 6.51036 8.97102 6.05896 8.5251 5.73926C8.07918 5.41956 7.54428 5.24763 6.9956 5.24763C6.44691 5.24763 5.91202 5.41956 5.46609 5.73926C5.02017 6.05896 4.68564 6.51036 4.50951 7.03001C4.33338 7.54966 4.32452 8.11144 4.48416 8.63638C4.6438 9.16133 4.96393 9.62306 5.39954 9.95667C4.62655 10.2916 3.98109 10.8652 3.55767 11.5935C3.51926 11.66 3.49905 11.7354 3.49905 11.8122C3.49906 11.889 3.51928 11.9645 3.55769 12.031C3.5961 12.0975 3.65134 12.1527 3.71787 12.1911C3.78439 12.2295 3.85985 12.2497 3.93665 12.2497H10.0617C10.1385 12.2497 10.2139 12.2295 10.2804 12.1911C10.347 12.1527 10.4022 12.0975 10.4406 12.031C10.479 11.9645 10.4992 11.889 10.4992 11.8122C10.4993 11.7354 10.479 11.66 10.4406 11.5935C10.0163 10.8647 9.36964 10.2911 8.59548 9.95667H8.59165Z" fill="#F5FBFF"/>
</svg>
