<svg width="40" height="40" viewBox="0 0 40 40" fill="none" xmlns="http://www.w3.org/2000/svg">
<circle cx="20" cy="20" r="20" fill="#285E99"/>
<circle cx="20.125" cy="20.125" r="18.125" fill="url(#paint0_linear_619_80)"/>
<path d="M38.25 20.125C38.25 30.1352 30.1352 38.25 20.125 38.25C10.1148 38.25 2 30.1352 2 20.125C2 10.1148 10.1148 2 20.125 2C30.1352 2 38.25 10.1148 38.25 20.125ZM3.8125 20.125C3.8125 29.1341 11.1159 36.4375 20.125 36.4375C29.1341 36.4375 36.4375 29.1341 36.4375 20.125C36.4375 11.1159 29.1341 3.8125 20.125 3.8125C11.1159 3.8125 3.8125 11.1159 3.8125 20.125Z" fill="url(#paint1_linear_619_80)"/>
<path d="M21.5169 14.3707C21.5339 14.3073 21.5632 14.2478 21.6031 14.1957C21.6431 14.1436 21.693 14.0998 21.7498 14.067C21.8067 14.0341 21.8695 14.0128 21.9346 14.0042C21.9998 13.9956 22.0659 14 22.1294 14.017C23.0563 14.2588 23.902 14.7434 24.5794 15.4208C25.2567 16.0981 25.7413 16.9438 25.9831 17.8707C26.0001 17.9342 26.0045 18.0004 25.9959 18.0655C25.9873 18.1306 25.966 18.1934 25.9332 18.2503C25.9003 18.3072 25.8566 18.357 25.8044 18.397C25.7523 18.437 25.6928 18.4663 25.6294 18.4832C25.5871 18.4943 25.5437 18.5 25.5 18.5001C25.3899 18.5002 25.2829 18.4638 25.1955 18.3968C25.1082 18.3298 25.0454 18.2358 25.0169 18.1295C24.8197 17.3727 24.4243 16.6822 23.8714 16.1291C23.3184 15.5761 22.628 15.1805 21.8713 14.9832C21.8077 14.9663 21.7482 14.9371 21.696 14.8971C21.6438 14.8572 21.6 14.8074 21.5671 14.7505C21.5342 14.6936 21.5128 14.6308 21.5042 14.5656C21.4956 14.5004 21.4999 14.4342 21.5169 14.3707ZM21.3713 16.9832C22.2331 17.2132 22.7869 17.7676 23.0169 18.6295C23.0454 18.7358 23.1082 18.8298 23.1955 18.8968C23.2829 18.9638 23.3899 19.0002 23.5 19.0001C23.5437 19 23.5871 18.9943 23.6294 18.9832C23.6928 18.9663 23.7523 18.937 23.8044 18.897C23.8566 18.857 23.9003 18.8072 23.9332 18.7503C23.966 18.6934 23.9873 18.6306 23.9959 18.5655C24.0045 18.5004 24.0001 18.4342 23.9831 18.3707C23.6631 17.1732 22.8269 16.337 21.6294 16.017C21.5659 16 21.4998 15.9958 21.4347 16.0044C21.3696 16.013 21.3068 16.0344 21.25 16.0672C21.1931 16.1001 21.1433 16.1439 21.1034 16.196C21.0634 16.2481 21.0341 16.3076 21.0172 16.3711C21.0002 16.4345 20.996 16.5007 21.0046 16.5658C21.0132 16.6309 21.0346 16.6936 21.0674 16.7505C21.1003 16.8073 21.1441 16.8571 21.1962 16.8971C21.2483 16.937 21.3078 16.9663 21.3713 16.9832ZM25.8981 21.9039L22.9538 20.5845L22.9456 20.5807C22.7928 20.5154 22.626 20.4891 22.4605 20.5044C22.2949 20.5197 22.1358 20.576 21.9975 20.6682C21.9812 20.679 21.9656 20.6907 21.9506 20.7032L20.4294 22.0001C19.4656 21.532 18.4706 20.5445 18.0025 19.5932L19.3013 18.0489C19.3138 18.0332 19.3256 18.0176 19.3369 18.0007C19.4271 17.8628 19.4819 17.7047 19.4963 17.5405C19.5107 17.3763 19.4843 17.211 19.4194 17.0595V17.052L18.0963 14.1026C18.0105 13.9047 17.863 13.7398 17.6757 13.6325C17.4885 13.5253 17.2717 13.4815 17.0575 13.5076C16.2106 13.6191 15.4332 14.035 14.8706 14.6777C14.3079 15.3204 13.9985 16.1459 14 17.0001C14 21.9626 18.0375 26.0001 23 26.0001C23.8542 26.0016 24.6797 25.6922 25.3224 25.1295C25.9651 24.5669 26.3811 23.7895 26.4925 22.9426C26.5187 22.7285 26.475 22.5117 26.3679 22.3245C26.2607 22.1373 26.096 21.9898 25.8981 21.9039Z" fill="#285E99"/>
<defs>
<linearGradient id="paint0_linear_619_80" x1="10.75" y1="7" x2="30.4375" y2="35.0208" gradientUnits="userSpaceOnUse">
<stop stop-color="#F5F5F9"/>
<stop offset="1" stop-color="#DADFE7"/>
</linearGradient>
<linearGradient id="paint1_linear_619_80" x1="4.99442" y1="8.37549" x2="20.125" y2="38.25" gradientUnits="userSpaceOnUse">
<stop stop-color="white" stop-opacity="0"/>
<stop offset="1" stop-color="#BBBFC7"/>
</linearGradient>
</defs>
</svg>
